<svg xmlns="http://www.w3.org/2000/svg" width="1120" height="1120" viewBox="0 0 1120 1120">
<rect width="1120" height="1120" fill="#FFF6E3"/>
<circle cx="40" cy="40" r="5" fill="#FDE7C8"/>
<circle cx="233" cy="69" r="6" fill="#FBE3EC"/>
<circle cx="366" cy="98" r="7" fill="#E3F2E1"/>
<circle cx="499" cy="67" r="8" fill="#E4EFF7"/>
<circle cx="632" cy="96" r="5" fill="#FDE7C8"/>
<circle cx="765" cy="65" r="6" fill="#FBE3EC"/>
<circle cx="898" cy="94" r="7" fill="#E3F2E1"/>
<circle cx="1031" cy="63" r="8" fill="#E4EFF7"/>
<circle cx="77" cy="187" r="8" fill="#FBE3EC"/>
<circle cx="210" cy="216" r="5" fill="#E3F2E1"/>
<circle cx="343" cy="185" r="6" fill="#E4EFF7"/>
<circle cx="476" cy="214" r="7" fill="#FDE7C8"/>
<circle cx="609" cy="183" r="8" fill="#FBE3EC"/>
<circle cx="742" cy="212" r="5" fill="#E3F2E1"/>
<circle cx="935" cy="181" r="6" fill="#E4EFF7"/>
<circle cx="1068" cy="210" r="7" fill="#FDE7C8"/>
<circle cx="54" cy="334" r="7" fill="#E3F2E1"/>
<circle cx="187" cy="363" r="8" fill="#E4EFF7"/>
<circle cx="320" cy="332" r="5" fill="#FDE7C8"/>
<circle cx="513" cy="361" r="6" fill="#FBE3EC"/>
<circle cx="646" cy="330" r="7" fill="#E3F2E1"/>
<circle cx="779" cy="359" r="8" fill="#E4EFF7"/>
<circle cx="912" cy="328" r="5" fill="#FDE7C8"/>
<circle cx="1045" cy="357" r="6" fill="#FBE3EC"/>
<circle cx="91" cy="481" r="6" fill="#E4EFF7"/>
<circle cx="224" cy="510" r="7" fill="#FDE7C8"/>
<circle cx="357" cy="479" r="8" fill="#FBE3EC"/>
<circle cx="490" cy="508" r="5" fill="#E3F2E1"/>
<circle cx="623" cy="477" r="6" fill="#E4EFF7"/>
<circle cx="756" cy="506" r="7" fill="#FDE7C8"/>
<circle cx="889" cy="475" r="8" fill="#FBE3EC"/>
<circle cx="1022" cy="504" r="5" fill="#E3F2E1"/>
<circle cx="68" cy="628" r="5" fill="#FDE7C8"/>
<circle cx="201" cy="657" r="6" fill="#FBE3EC"/>
<circle cx="334" cy="626" r="7" fill="#E3F2E1"/>
<circle cx="467" cy="655" r="8" fill="#E4EFF7"/>
<circle cx="600" cy="624" r="5" fill="#FDE7C8"/>
<circle cx="793" cy="653" r="6" fill="#FBE3EC"/>
<circle cx="926" cy="622" r="7" fill="#E3F2E1"/>
<circle cx="1059" cy="651" r="8" fill="#E4EFF7"/>
<circle cx="45" cy="775" r="8" fill="#FBE3EC"/>
<circle cx="238" cy="744" r="5" fill="#E3F2E1"/>
<circle cx="371" cy="773" r="6" fill="#E4EFF7"/>
<circle cx="504" cy="742" r="7" fill="#FDE7C8"/>
<circle cx="637" cy="771" r="8" fill="#FBE3EC"/>
<circle cx="770" cy="740" r="5" fill="#E3F2E1"/>
<circle cx="903" cy="769" r="6" fill="#E4EFF7"/>
<circle cx="1036" cy="798" r="7" fill="#FDE7C8"/>
<circle cx="82" cy="922" r="7" fill="#E3F2E1"/>
<circle cx="215" cy="891" r="8" fill="#E4EFF7"/>
<circle cx="348" cy="920" r="5" fill="#FDE7C8"/>
<circle cx="481" cy="889" r="6" fill="#FBE3EC"/>
<circle cx="614" cy="918" r="7" fill="#E3F2E1"/>
<circle cx="747" cy="887" r="8" fill="#E4EFF7"/>
<circle cx="880" cy="916" r="5" fill="#FDE7C8"/>
<circle cx="1073" cy="885" r="6" fill="#FBE3EC"/>
<circle cx="59" cy="1069" r="6" fill="#E4EFF7"/>
<circle cx="192" cy="1038" r="7" fill="#FDE7C8"/>
<circle cx="325" cy="1067" r="8" fill="#FBE3EC"/>
<circle cx="518" cy="1036" r="5" fill="#E3F2E1"/>
<circle cx="651" cy="1065" r="6" fill="#E4EFF7"/>
<circle cx="784" cy="1034" r="7" fill="#FDE7C8"/>
<circle cx="917" cy="1063" r="8" fill="#FBE3EC"/>
<circle cx="1050" cy="1032" r="5" fill="#E3F2E1"/>
<defs>
<g id="burger"><g stroke="#43302B" stroke-width="6" stroke-linecap="round" stroke-linejoin="round">
<path d="M-52,-10 C-52,-42 -24,-54 0,-54 C24,-54 52,-42 52,-10 Z" fill="#F8AE54"/>
<circle cx="-24" cy="-32" r="3" fill="#FFF3D6" stroke="none"/>
<circle cx="0" cy="-38" r="3" fill="#FFF3D6" stroke="none"/>
<circle cx="24" cy="-32" r="3" fill="#FFF3D6" stroke="none"/>
<circle cx="-11" cy="-24" r="3" fill="#FFF3D6" stroke="none"/>
<circle cx="13" cy="-22" r="3" fill="#FFF3D6" stroke="none"/>
<path d="M-56,-10 L56,-10 C50,2 40,-4 32,2 C24,8 16,-2 8,4 C0,10 -8,0 -16,6 C-24,12 -32,2 -40,6 C-48,10 -54,-2 -56,-10 Z" fill="#8BC34A"/>
<rect x="-50" y="4" width="100" height="14" rx="7" fill="#FFD54F"/>
<rect x="-54" y="16" width="108" height="16" rx="8" fill="#8D5524"/>
<path d="M-50,32 C-50,46 -30,50 0,50 C30,50 50,46 50,32 Z" fill="#F8AE54"/>
</g></g>
<g id="pizza"><g stroke="#43302B" stroke-width="6" stroke-linecap="round" stroke-linejoin="round">
<path d="M-46,-42 C0,-58 0,-58 46,-42 L4,52 C2,57 -2,57 -4,52 Z" fill="#FFD457"/>
<path d="M-50,-40 C0,-60 0,-60 50,-40 L44,-27 C0,-44 0,-44 -44,-27 Z" fill="#E8833A"/>
<circle cx="-14" cy="-18" r="9" fill="#E53E51"/>
<circle cx="16" cy="-12" r="9" fill="#E53E51"/>
<circle cx="0" cy="14" r="9" fill="#E53E51"/>
<path d="M-24,2 q4,-6 10,-2" fill="none" stroke="#8BC34A" stroke-width="5"/>
<path d="M12,26 q4,-6 10,-2" fill="none" stroke="#8BC34A" stroke-width="5"/>
</g></g>
<g id="sushi"><g stroke="#43302B" stroke-width="6" stroke-linecap="round" stroke-linejoin="round">
<ellipse cx="0" cy="18" rx="46" ry="24" fill="#FFFFFF"/>
<path d="M-46,14 C-46,2 -28,-4 0,-4 C28,-4 46,2 46,14 L46,18 C46,30 28,38 0,38 C-28,38 -46,30 -46,18 Z" fill="#FFFFFF"/>
<path d="M-44,-8 C-30,-24 30,-24 44,-8 C48,-2 44,6 36,6 L-36,6 C-44,6 -48,-2 -44,-8 Z" fill="#FA7268"/>
<path d="M-28,-14 L-20,-4 M-8,-17 L0,-5 M12,-16 L20,-5 M30,-12 L34,-4" stroke="#FFB3AC" stroke-width="4" fill="none"/>
<rect x="-14" y="-22" width="28" height="52" rx="6" fill="#2E7D4F"/>
</g></g>
<g id="maki"><g stroke="#43302B" stroke-width="6" stroke-linecap="round" stroke-linejoin="round">
<circle cx="0" cy="0" r="46" fill="#2E4034"/>
<circle cx="0" cy="0" r="34" fill="#FFFFFF"/>
<circle cx="0" cy="0" r="34" fill="none" stroke="#43302B" stroke-width="5"/>
<circle cx="0" cy="2" r="13" fill="#FA7268"/>
<path d="M-15,-12 q6,-8 14,-5" fill="none" stroke="#8BC34A" stroke-width="6"/>
<path d="M8,-14 q8,-2 12,6" fill="none" stroke="#FFB300" stroke-width="6"/>
</g></g>
<g id="ramen"><g stroke="#43302B" stroke-width="6" stroke-linecap="round" stroke-linejoin="round">
<path d="M-20,-58 L52,-74 L54,-65 L-20,-49 Z" fill="#C98850"/>
<path d="M-32,-52 L46,-82 L50,-73 L-32,-43 Z" fill="#E0A56B"/>
<path d="M-30,-64 q6,-9 0,-18 M-16,-68 q6,-9 0,-18" fill="none" stroke="#B9B9B9" stroke-width="4"/>
<path d="M-50,-12 C-50,-26 -28,-34 0,-34 C28,-34 50,-26 50,-12 Z" fill="#FFE9B8"/>
<path d="M-44,-12 q1,-11 9,-11 q8,0 8,9 M-22,-16 q1,-11 9,-11 q8,0 8,9 M2,-17 q1,-11 9,-11 q8,0 8,9 M26,-15 q1,-10 9,-10 q7,0 8,8" fill="none" stroke-width="4.5"/>
<circle cx="-24" cy="-34" r="13" fill="#FFFFFF"/>
<circle cx="-24" cy="-34" r="6" fill="#FFB300" stroke="none"/>
<circle cx="14" cy="-37" r="13" fill="#FFF4F6"/>
<path d="M14,-46 a9,9 0 1 1 -8,13 a5.5,5.5 0 1 0 5,-9" fill="#FA7268" stroke="none"/>
<path d="M38,-40 L49,-40 L49,-16 L38,-16 Z" fill="#2E4034"/>
<path d="M-52,-12 C-52,20 -30,44 0,44 C30,44 52,20 52,-12 Z" fill="#FF6F61"/>
<path d="M-36,20 L36,20 C30,36 16,44 0,44 C-16,44 -30,36 -36,20 Z" fill="#E85A4F" stroke="none"/>
<path d="M-40,4 L40,4" fill="none" stroke="#FFFFFF" stroke-width="5" opacity="0.55"/>
</g></g>
<g id="cloche"><g stroke="#43302B" stroke-width="6" stroke-linecap="round" stroke-linejoin="round">
<path d="M-46,18 C-46,-16 -22,-38 0,-38 C22,-38 46,-16 46,18 Z" fill="#BFD8E8"/>
<path d="M-34,6 C-32,-12 -20,-24 -8,-28" fill="none" stroke="#FFFFFF" stroke-width="6"/>
<circle cx="0" cy="-44" r="7" fill="#BFD8E8"/>
<rect x="-58" y="18" width="116" height="10" rx="5" fill="#8FB8D0"/>
<path d="M-26,-56 l3,7 l7,1 l-5,5 l1,7 l-6,-3 l-6,3 l1,-7 l-5,-5 l7,-1 Z" fill="#FFD457" stroke-width="4"/>
<path d="M34,-62 l2,5 l5,1 l-4,4 l1,5 l-4,-2 l-4,2 l1,-5 l-4,-4 l5,-1 Z" fill="#FFD457" stroke-width="3.5"/>
</g></g>
<g id="wine"><g stroke="#43302B" stroke-width="6" stroke-linecap="round" stroke-linejoin="round">
<path d="M-26,-56 L26,-56 C26,-30 26,-8 0,-4 C-26,-8 -26,-30 -26,-56 Z" fill="#F3E6E8"/>
<path d="M-25,-40 C-25,-22 -22,-10 0,-6 C22,-10 25,-22 25,-40 Z" fill="#B03A5B" stroke="none"/>
<path d="M-26,-56 L26,-56 C26,-30 26,-8 0,-4 C-26,-8 -26,-30 -26,-56 Z" fill="none"/>
<line x1="0" y1="-4" x2="0" y2="34"/>
<path d="M-20,34 L20,34" />
<path d="M-18,-34 q0,10 8,16" fill="none" stroke="#E8A0B4" stroke-width="4"/>
<path d="M32,-70 l2,5 l5,1 l-4,4 l1,5 l-4,-2 l-4,2 l1,-5 l-4,-4 l5,-1 Z" fill="#FFD457" stroke-width="3.5"/>
</g></g>
<g id="lobster"><g stroke="#43302B" stroke-width="6" stroke-linecap="round" stroke-linejoin="round">
<path d="M-10,-40 Q-22,-56 -18,-70 M10,-40 Q22,-56 18,-70" fill="none" stroke-width="4.5"/>
<path d="M-16,-24 Q-28,-24 -34,-32" fill="none" stroke-width="5"/>
<path d="M16,-24 Q28,-24 34,-32" fill="none" stroke-width="5"/>
<path d="M-34,-30 C-52,-28 -60,-42 -52,-54 C-49,-47 -44,-46 -40,-49 C-42,-42 -36,-38 -28,-40 C-24,-36 -26,-31 -34,-30 Z" fill="#E85A4F"/>
<path d="M34,-30 C52,-28 60,-42 52,-54 C49,-47 44,-46 40,-49 C42,-42 36,-38 28,-40 C24,-36 26,-31 34,-30 Z" fill="#E85A4F"/>
<path d="M-18,-6 q-10,2 -14,8 M-17,6 q-10,4 -12,10 M18,-6 q10,2 14,8 M17,6 q10,4 12,10" fill="none" stroke-width="4.5"/>
<path d="M0,-44 C13,-44 20,-32 20,-16 C20,2 12,14 0,14 C-12,14 -20,2 -20,-16 C-20,-32 -13,-44 0,-44 Z" fill="#E85A4F"/>
<path d="M-19,-12 L19,-12 M-18,0 L18,0" stroke-width="4.5"/>
<path d="M-14,14 L14,14 L10,32 L-10,32 Z M-10,32 L10,32 L7,46 L-7,46 Z" fill="#E85A4F" stroke-width="4.5"/>
<path d="M0,46 C-4,54 -12,58 -20,56 C-16,50 -15,46 -16,42 L-7,46 Z" fill="#E85A4F" stroke-width="4.5"/>
<path d="M0,46 C4,54 12,58 20,56 C16,50 15,46 16,42 L7,46 Z" fill="#E85A4F" stroke-width="4.5"/>
<path d="M0,46 L0,58" stroke-width="4.5"/>
<circle cx="-7" cy="-32" r="3.4" fill="#43302B" stroke="none"/>
<circle cx="7" cy="-32" r="3.4" fill="#43302B" stroke="none"/>
</g></g>
<g id="steak"><g stroke="#43302B" stroke-width="6" stroke-linecap="round" stroke-linejoin="round">
<ellipse cx="0" cy="14" rx="56" ry="30" fill="#FFFFFF"/>
<ellipse cx="0" cy="14" rx="42" ry="20" fill="none" stroke-width="4"/>
<path d="M-30,2 C-38,-8 -32,-22 -18,-24 C-8,-26 -2,-20 8,-22 C22,-25 34,-18 34,-6 C34,6 24,14 10,14 C-4,14 -6,8 -16,10 C-24,11 -26,7 -30,2 Z" fill="#A9583C"/>
<path d="M-22,-12 L26,-2 M-18,0 L18,6" stroke="#7C3B26" stroke-width="4"/>
<path d="M20,-30 q4,-8 0,-14" fill="none" stroke="#B9B9B9" stroke-width="4"/>
<path d="M-12,26 q6,4 14,2" fill="none" stroke="#8BC34A" stroke-width="5"/>
</g></g>
<g id="cocktail"><g stroke="#43302B" stroke-width="6" stroke-linecap="round" stroke-linejoin="round">
<path d="M-38,-48 L38,-48 L4,-8 L-4,-8 Z" fill="#FFC1CC"/>
<path d="M-30,-40 L30,-40 L4,-10 L-4,-10 Z" fill="#FF8FA3" stroke="none"/>
<line x1="0" y1="-8" x2="0" y2="32"/>
<path d="M-18,32 L18,32"/>
<line x1="14" y1="-66" x2="-2" y2="-34"/>
<circle cx="18" cy="-70" r="9" fill="#E53E51"/>
<path d="M28,-38 q8,-2 10,-10" fill="none" stroke="#FFD457" stroke-width="4"/>
<circle cx="-22" cy="-58" r="3" fill="#FFD457" stroke="none"/>
</g></g>
<g id="macaron"><g stroke="#43302B" stroke-width="6" stroke-linecap="round" stroke-linejoin="round">
<path d="M-40,-26 C-40,-42 -20,-50 0,-50 C20,-50 40,-42 40,-26 C40,-18 24,-16 0,-16 C-24,-16 -40,-18 -40,-26 Z" fill="#F48FB1"/>
<path d="M-36,-12 C-24,-8 24,-8 36,-12 C36,-6 24,-2 0,-2 C-24,-2 -36,-6 -36,-12 Z" fill="#FFF3D6"/>
<path d="M-40,8 C-40,0 -24,2 0,2 C24,2 40,0 40,8 C40,24 20,32 0,32 C-20,32 -40,24 -40,8 Z" fill="#F48FB1"/>
<circle cx="-12" cy="-34" r="3" fill="#FFFFFF" stroke="none"/>
<path d="M30,44 l2,5 l5,1 l-4,4 l1,5 l-4,-2 l-4,2 l1,-5 l-4,-4 l5,-1 Z" fill="#FFD457" stroke-width="3.5" transform="translate(14,-84)"/>
</g></g>
<g id="croissant"><g stroke="#43302B" stroke-width="6" stroke-linecap="round" stroke-linejoin="round">
<path d="M-24,-6 C-40,2 -52,14 -56,26 C-58,32 -52,36 -46,32 C-38,26 -32,24 -26,24 Z" fill="#E8A054"/>
<path d="M24,-6 C40,2 52,14 56,26 C58,32 52,36 46,32 C38,26 32,24 26,24 Z" fill="#E8A054"/>
<path d="M0,-30 C16,-30 30,-16 30,4 C30,18 18,28 0,28 C-18,28 -30,18 -30,4 C-30,-16 -16,-30 0,-30 Z" fill="#F2B266"/>
<path d="M-26,-8 C-30,4 -28,16 -20,24 M26,-8 C30,4 28,16 20,24" fill="none" stroke-width="5"/>
<path d="M-8,-24 q8,-4 16,0" fill="none" stroke="#C97F35" stroke-width="4"/>
<path d="M-14,2 q14,10 28,0" fill="none" stroke="#C97F35" stroke-width="4"/>
</g></g>
<g id="cake"><g stroke="#43302B" stroke-width="6" stroke-linecap="round" stroke-linejoin="round">
<path d="M-38,44 L38,44" stroke-width="5"/>
<path d="M-30,-2 L30,-2 L30,38 L-30,38 Z" fill="#FFF3D6"/>
<path d="M-30,10 L30,10 M-30,24 L30,24" stroke="#F48FB1" stroke-width="6"/>
<path d="M-30,-2 L30,-2 L30,4 C22,12 16,0 8,8 C0,16 -8,2 -16,10 C-24,16 -28,6 -30,4 Z" fill="#F48FB1" stroke-width="5"/>
<path d="M0,-28 C-9,-22 -11,-12 0,-6 C11,-12 9,-22 0,-28 Z" fill="#E53E51"/>
<path d="M0,-28 q-4,-6 -8,-7 M0,-28 q1,-7 6,-9" fill="none" stroke="#2E7D4F" stroke-width="4"/>
<circle cx="-3" cy="-18" r="1.4" fill="#FFF3D6" stroke="none"/>
<circle cx="4" cy="-14" r="1.4" fill="#FFF3D6" stroke="none"/>
</g></g>
<g id="pasta"><g stroke="#43302B" stroke-width="6" stroke-linecap="round" stroke-linejoin="round">
<ellipse cx="0" cy="22" rx="52" ry="26" fill="#FFFFFF"/>
<path d="M-40,16 C-40,4 -22,-4 0,-4 C22,-4 40,4 40,16 C40,26 22,34 0,34 C-22,34 -40,26 -40,16 Z" fill="#FFD457"/>
<path d="M-32,10 q8,10 16,0 q8,10 16,0 q8,10 16,0 M-28,22 q8,10 16,0 q8,10 16,0" fill="none" stroke="#F0B429" stroke-width="4"/>
<line x1="18" y1="-2" x2="34" y2="-52"/>
<path d="M26,-52 L42,-52 M28,-52 L30,-40 M38,-52 L36,-40" stroke-width="5"/>
<circle cx="-14" cy="8" r="7" fill="#E53E51"/>
<circle cx="6" cy="20" r="7" fill="#E53E51"/>
<path d="M-4,0 q5,-6 11,-3" fill="none" stroke="#8BC34A" stroke-width="4"/>
</g></g>
<g id="caviar"><g stroke="#43302B" stroke-width="6" stroke-linecap="round" stroke-linejoin="round">
<ellipse cx="0" cy="26" rx="54" ry="14" fill="#FFFFFF"/>
<path d="M-42,-8 L42,-8 L36,18 C34,26 28,30 20,30 L-20,30 C-28,30 -34,26 -36,18 Z" fill="#FFF3D6"/>
<ellipse cx="0" cy="-8" rx="42" ry="12" fill="#E8A054"/>
<path d="M-28,-11 q8,6 16,0 q8,6 16,0 q8,6 16,0" fill="none" stroke="#C97F35" stroke-width="4"/>
<path d="M-14,-26 q4,-4 12,-2 q8,2 10,-4" fill="none" stroke="#8BC34A" stroke-width="4.5"/>
<circle cx="-20" cy="-24" r="6" fill="#E53E51"/>
<path d="M40,-30 l2,5 l5,1 l-4,4 l1,5 l-4,-2 l-4,2 l1,-5 l-4,-4 l5,-1 Z" fill="#FFD457" stroke-width="3.5"/>
</g></g>
<g id="cheese"><g stroke="#43302B" stroke-width="6" stroke-linecap="round" stroke-linejoin="round">
<path d="M-46,26 L-46,2 C-46,-4 -40,-10 -32,-12 L36,-30 C44,-32 50,-26 50,-20 L50,26 C50,32 44,36 38,36 L-34,36 C-42,36 -46,32 -46,26 Z" fill="#FFD457"/>
<path d="M-46,4 L50,-18" fill="none"/>
<circle cx="-18" cy="16" r="8" fill="#F0B429" stroke-width="4"/>
<circle cx="14" cy="22" r="6" fill="#F0B429" stroke-width="4"/>
<circle cx="28" cy="2" r="7" fill="#F0B429" stroke-width="4"/>
<circle cx="-2" cy="-2" r="5" fill="#F0B429" stroke-width="4"/>
</g></g>
<g id="star"><g stroke="#43302B" stroke-width="4" stroke-linecap="round" stroke-linejoin="round"><path d="M0,-14 l4,9 l10,1 l-7,7 l2,10 l-9,-5 l-9,5 l2,-10 l-7,-7 l10,-1 Z" fill="#FFD457"/></g></g>
<g id="spark"><g stroke="#43302B" stroke-width="4" stroke-linecap="round" stroke-linejoin="round"><path d="M0,-13 L3,-3 L13,0 L3,3 L0,13 L-3,3 L-13,0 L-3,-3 Z" fill="#FF8FA3"/></g></g>
<g id="heart"><g stroke="#43302B" stroke-width="4" stroke-linecap="round" stroke-linejoin="round"><path d="M0,12 C-14,2 -16,-8 -9,-13 C-4,-16 0,-12 0,-8 C0,-12 4,-16 9,-13 C16,-8 14,2 0,12 Z" fill="#E85A4F"/></g></g>
<g id="steam"><g stroke="#43302B" stroke-width="5" stroke-linecap="round" stroke-linejoin="round"><path d="M-8,14 q-8,-10 0,-20 q8,-10 0,-20 M8,14 q-8,-10 0,-20 q8,-10 0,-20" fill="none" stroke="#B9C4CC" stroke-width="5"/></g></g>
<g id="dot3"><g stroke="#43302B" stroke-width="3" stroke-linecap="round" stroke-linejoin="round"><circle cx="-12" cy="6" r="4" fill="#8BC34A" stroke-width="3"/><circle cx="2" cy="-8" r="4" fill="#FFB300" stroke-width="3"/><circle cx="12" cy="8" r="4" fill="#FA7268" stroke-width="3"/></g></g>
<g id="olive"><g stroke="#43302B" stroke-width="4" stroke-linecap="round" stroke-linejoin="round"><circle cx="0" cy="4" r="10" fill="#8BC34A"/><circle cx="0" cy="4" r="3.5" fill="#E53E51" stroke-width="3"/><path d="M0,-6 q6,-8 14,-8" fill="none" stroke-width="4"/></g></g>
<g id="lemon"><g stroke="#43302B" stroke-width="4" stroke-linecap="round" stroke-linejoin="round"><path d="M-14,0 C-14,-9 -7,-14 0,-14 C7,-14 14,-9 14,0 C14,9 7,14 0,14 C-7,14 -14,9 -14,0 Z" fill="#FFF176"/><path d="M-8,0 L8,0 M0,-8 L0,8 M-6,-6 L6,6 M-6,6 L6,-6" stroke-width="3"/></g></g>
</defs>
<use href="#star" transform="translate(280,280) rotate(-20)"/>
<use href="#steam" transform="translate(560,280) rotate(-3)"/>
<use href="#dot3" transform="translate(840,280) rotate(14)"/>
<use href="#heart" transform="translate(0,280) rotate(-9)"/>
<use href="#olive" transform="translate(280,560) rotate(11)"/>
<use href="#spark" transform="translate(560,560) rotate(-12)"/>
<use href="#lemon" transform="translate(840,560) rotate(5)"/>
<use href="#dot3" transform="translate(0,560) rotate(-18)"/>
<use href="#star" transform="translate(280,840) rotate(2)"/>
<use href="#lemon" transform="translate(560,840) rotate(19)"/>
<use href="#spark" transform="translate(840,840) rotate(-4)"/>
<use href="#steam" transform="translate(0,840) rotate(13)"/>
<use href="#heart" transform="translate(280,0) rotate(-7)"/>
<use href="#olive" transform="translate(560,0) rotate(10)"/>
<use href="#star" transform="translate(840,0) rotate(-13)"/>
<use href="#dot3" transform="translate(0,0) rotate(4)"/>
<use href="#burger" transform="translate(130,146) rotate(-8) scale(1.06)"/>
<use href="#wine" transform="translate(428,132) rotate(6) scale(1.1)"/>
<use href="#sushi" transform="translate(694,150) rotate(-5) scale(1.05)"/>
<use href="#macaron" transform="translate(990,144) rotate(8) scale(1.05)"/>
<use href="#lobster" transform="translate(148,430) rotate(7) scale(1.0)"/>
<use href="#pizza" transform="translate(410,414) rotate(-6) scale(1.1)"/>
<use href="#cloche" transform="translate(706,428) rotate(4) scale(1.08)"/>
<use href="#ramen" transform="translate(972,426) rotate(-7) scale(1.08)"/>
<use href="#pasta" transform="translate(134,692) rotate(-6) scale(1.05)"/>
<use href="#cocktail" transform="translate(430,708) rotate(8) scale(1.06)"/>
<use href="#steak" transform="translate(690,696) rotate(-7) scale(1.1)"/>
<use href="#maki" transform="translate(986,690) rotate(5) scale(1.05)"/>
<use href="#cheese" transform="translate(150,974) rotate(6) scale(1.1)"/>
<use href="#cake" transform="translate(412,988) rotate(-8) scale(1.05)"/>
<use href="#croissant" transform="translate(708,970) rotate(7) scale(1.06)"/>
<use href="#caviar" transform="translate(974,974) rotate(-5) scale(1.02)"/>
</svg>